<svg id="visual" viewBox="0 0 900 600" width="900" height="600" xmlns="http://www.w3.org/2000/svg" xmlns:xlink="http://www.w3.org/1999/xlink" version="1.1"><rect x="0" y="0" width="900" height="600" fill="#f7f7f7"></rect><path d="M0 544L45 544L45 489L90 489L90 486L135 486L135 527L180 527L180 546L225 546L225 493L270 493L270 566L315 566L315 466L360 466L360 496L405 496L405 546L450 546L450 569L495 569L495 572L540 572L540 544L585 544L585 530L630 530L630 457L675 457L675 462L720 462L720 497L765 497L765 482L810 482L810 550L855 550L855 474L900 474L900 552L900 601L900 601L855 601L855 601L810 601L810 601L765 601L765 601L720 601L720 601L675 601L675 601L630 601L630 601L585 601L585 601L540 601L540 601L495 601L495 601L450 601L450 601L405 601L405 601L360 601L360 601L315 601L315 601L270 601L270 601L225 601L225 601L180 601L180 601L135 601L135 601L90 601L90 601L45 601L45 601L0 601Z" fill="#65927d" stroke-linecap="square" stroke-linejoin="miter"></path></svg>